<mxfile host="app.diagrams.net" modified="2024-01-08T01:09:47.986Z" agent="Mozilla/5.0 (X11; Linux x86_64) AppleWebKit/537.36 (KHTML, like Gecko) Chrome/119.0.0.0 Safari/537.36" version="22.1.17" etag="54z-o3c_KUBvplGNR0nP" type="github">
  <diagram name="第 1 页" id="E7DYkdmqWsRvboMN7r2-">
    <mxGraphModel>
      <root>
        <mxCell id="0" />
        <mxCell id="1" parent="0" />
      </root>
    </mxGraphModel>
  </diagram>
</mxfile>
